<mxfile host="app.diagrams.net" modified="2023-04-25T15:40:57.059Z" agent="Mozilla/5.0 (Macintosh; Intel Mac OS X 10_15_7) AppleWebKit/537.36 (KHTML, like Gecko) Chrome/112.0.0.0 Safari/537.36" etag="ZJzX4k3ws_DO4F7ZP75E" version="21.2.1" type="device">
  <diagram name="Σελίδα-1" id="fe9gfnaxFHkDQtzy1zNA">
    <mxGraphModel dx="2133" dy="2004" grid="1" gridSize="10" guides="1" tooltips="1" connect="1" arrows="1" fold="1" page="1" pageScale="1" pageWidth="827" pageHeight="1169" math="0" shadow="0">
      <root>
        <mxCell id="0" />
        <mxCell id="1" parent="0" />
        <mxCell id="phPr1kaGQBQbVtV2x5ig-69" style="edgeStyle=orthogonalEdgeStyle;rounded=0;orthogonalLoop=1;jettySize=auto;html=1;entryX=0.5;entryY=1;entryDx=0;entryDy=0;endArrow=block;endFill=0;" parent="1" target="phPr1kaGQBQbVtV2x5ig-1" edge="1">
          <mxGeometry relative="1" as="geometry">
            <mxPoint x="190" y="220" as="targetPoint" />
            <mxPoint x="280" y="290" as="sourcePoint" />
          </mxGeometry>
        </mxCell>
        <mxCell id="phPr1kaGQBQbVtV2x5ig-1" value="" style="rounded=0;whiteSpace=wrap;html=1;" parent="1" vertex="1">
          <mxGeometry x="230" y="150" width="100" height="40" as="geometry" />
        </mxCell>
        <mxCell id="phPr1kaGQBQbVtV2x5ig-68" style="edgeStyle=orthogonalEdgeStyle;rounded=0;orthogonalLoop=1;jettySize=auto;html=1;exitX=0.5;exitY=0;exitDx=0;exitDy=0;entryX=0;entryY=1;entryDx=0;entryDy=0;endArrow=block;endFill=0;" parent="1" source="phPr1kaGQBQbVtV2x5ig-11" target="phPr1kaGQBQbVtV2x5ig-2" edge="1">
          <mxGeometry relative="1" as="geometry">
            <Array as="points">
              <mxPoint x="-80" y="150" />
            </Array>
          </mxGeometry>
        </mxCell>
        <mxCell id="phPr1kaGQBQbVtV2x5ig-70" style="edgeStyle=orthogonalEdgeStyle;rounded=0;orthogonalLoop=1;jettySize=auto;html=1;entryX=1;entryY=1;entryDx=0;entryDy=0;endArrow=block;endFill=0;" parent="1" source="phPr1kaGQBQbVtV2x5ig-8" target="phPr1kaGQBQbVtV2x5ig-2" edge="1">
          <mxGeometry relative="1" as="geometry">
            <Array as="points">
              <mxPoint x="690" y="150" />
            </Array>
          </mxGeometry>
        </mxCell>
        <mxCell id="phPr1kaGQBQbVtV2x5ig-2" value="Χρήστης" style="rounded=0;whiteSpace=wrap;html=1;" parent="1" vertex="1">
          <mxGeometry x="230" y="120" width="100" height="30" as="geometry" />
        </mxCell>
        <mxCell id="phPr1kaGQBQbVtV2x5ig-5" style="edgeStyle=orthogonalEdgeStyle;rounded=0;orthogonalLoop=1;jettySize=auto;html=1;exitX=0.5;exitY=1;exitDx=0;exitDy=0;" parent="1" source="phPr1kaGQBQbVtV2x5ig-1" target="phPr1kaGQBQbVtV2x5ig-1" edge="1">
          <mxGeometry relative="1" as="geometry" />
        </mxCell>
        <mxCell id="phPr1kaGQBQbVtV2x5ig-7" value="" style="rounded=0;whiteSpace=wrap;html=1;" parent="1" vertex="1">
          <mxGeometry x="640" y="321" width="100" height="40" as="geometry" />
        </mxCell>
        <mxCell id="phPr1kaGQBQbVtV2x5ig-8" value="Μαθητής" style="rounded=0;whiteSpace=wrap;html=1;" parent="1" vertex="1">
          <mxGeometry x="640" y="291" width="100" height="30" as="geometry" />
        </mxCell>
        <mxCell id="phPr1kaGQBQbVtV2x5ig-9" style="edgeStyle=orthogonalEdgeStyle;rounded=0;orthogonalLoop=1;jettySize=auto;html=1;exitX=0.5;exitY=1;exitDx=0;exitDy=0;" parent="1" source="phPr1kaGQBQbVtV2x5ig-7" target="phPr1kaGQBQbVtV2x5ig-7" edge="1">
          <mxGeometry relative="1" as="geometry" />
        </mxCell>
        <mxCell id="phPr1kaGQBQbVtV2x5ig-10" value="" style="rounded=0;whiteSpace=wrap;html=1;" parent="1" vertex="1">
          <mxGeometry x="-130" y="320" width="100" height="40" as="geometry" />
        </mxCell>
        <mxCell id="phPr1kaGQBQbVtV2x5ig-11" value="Γονιός" style="rounded=0;whiteSpace=wrap;html=1;" parent="1" vertex="1">
          <mxGeometry x="-130" y="290" width="100" height="30" as="geometry" />
        </mxCell>
        <mxCell id="phPr1kaGQBQbVtV2x5ig-71" style="edgeStyle=orthogonalEdgeStyle;rounded=0;orthogonalLoop=1;jettySize=auto;html=1;entryX=0;entryY=0;entryDx=0;entryDy=0;endArrow=block;endFill=0;" parent="1" source="phPr1kaGQBQbVtV2x5ig-17" target="phPr1kaGQBQbVtV2x5ig-13" edge="1">
          <mxGeometry relative="1" as="geometry">
            <Array as="points">
              <mxPoint x="90" y="320" />
            </Array>
          </mxGeometry>
        </mxCell>
        <mxCell id="phPr1kaGQBQbVtV2x5ig-12" style="edgeStyle=orthogonalEdgeStyle;rounded=0;orthogonalLoop=1;jettySize=auto;html=1;exitX=0.5;exitY=1;exitDx=0;exitDy=0;" parent="1" source="phPr1kaGQBQbVtV2x5ig-10" target="phPr1kaGQBQbVtV2x5ig-10" edge="1">
          <mxGeometry relative="1" as="geometry" />
        </mxCell>
        <mxCell id="phPr1kaGQBQbVtV2x5ig-74" style="edgeStyle=orthogonalEdgeStyle;rounded=0;orthogonalLoop=1;jettySize=auto;html=1;entryX=0.5;entryY=1;entryDx=0;entryDy=0;exitX=0.5;exitY=0;exitDx=0;exitDy=0;endArrow=block;endFill=0;" parent="1" source="phPr1kaGQBQbVtV2x5ig-20" target="phPr1kaGQBQbVtV2x5ig-13" edge="1">
          <mxGeometry relative="1" as="geometry">
            <mxPoint x="200" y="410" as="targetPoint" />
            <mxPoint x="286" y="470" as="sourcePoint" />
          </mxGeometry>
        </mxCell>
        <mxCell id="phPr1kaGQBQbVtV2x5ig-13" value="" style="rounded=0;whiteSpace=wrap;html=1;" parent="1" vertex="1">
          <mxGeometry x="236" y="321" width="100" height="40" as="geometry" />
        </mxCell>
        <mxCell id="phPr1kaGQBQbVtV2x5ig-72" style="edgeStyle=orthogonalEdgeStyle;rounded=0;orthogonalLoop=1;jettySize=auto;html=1;entryX=1;entryY=1;entryDx=0;entryDy=0;endArrow=block;endFill=0;" parent="1" target="phPr1kaGQBQbVtV2x5ig-14" edge="1">
          <mxGeometry relative="1" as="geometry">
            <mxPoint x="460" y="480" as="sourcePoint" />
            <Array as="points">
              <mxPoint x="460" y="480" />
              <mxPoint x="460" y="320" />
            </Array>
          </mxGeometry>
        </mxCell>
        <mxCell id="phPr1kaGQBQbVtV2x5ig-14" value="Εργαζόμενος" style="rounded=0;whiteSpace=wrap;html=1;" parent="1" vertex="1">
          <mxGeometry x="236" y="291" width="100" height="30" as="geometry" />
        </mxCell>
        <mxCell id="phPr1kaGQBQbVtV2x5ig-15" style="edgeStyle=orthogonalEdgeStyle;rounded=0;orthogonalLoop=1;jettySize=auto;html=1;exitX=0.5;exitY=1;exitDx=0;exitDy=0;" parent="1" source="phPr1kaGQBQbVtV2x5ig-13" target="phPr1kaGQBQbVtV2x5ig-13" edge="1">
          <mxGeometry relative="1" as="geometry" />
        </mxCell>
        <mxCell id="phPr1kaGQBQbVtV2x5ig-158" style="edgeStyle=none;shape=connector;rounded=0;orthogonalLoop=1;jettySize=auto;html=1;exitX=1;exitY=0;exitDx=0;exitDy=0;entryX=0.5;entryY=0;entryDx=0;entryDy=0;labelBackgroundColor=default;strokeColor=default;fontFamily=Helvetica;fontSize=11;fontColor=default;endArrow=none;" parent="1" source="phPr1kaGQBQbVtV2x5ig-16" edge="1">
          <mxGeometry relative="1" as="geometry">
            <mxPoint x="190" y="623.5" as="targetPoint" />
          </mxGeometry>
        </mxCell>
        <mxCell id="phPr1kaGQBQbVtV2x5ig-16" value="" style="rounded=0;whiteSpace=wrap;html=1;" parent="1" vertex="1">
          <mxGeometry x="40" y="511" width="100" height="40" as="geometry" />
        </mxCell>
        <mxCell id="phPr1kaGQBQbVtV2x5ig-157" style="edgeStyle=none;shape=connector;rounded=0;orthogonalLoop=1;jettySize=auto;html=1;exitX=0;exitY=0.75;exitDx=0;exitDy=0;entryX=0.4;entryY=0;entryDx=0;entryDy=0;entryPerimeter=0;labelBackgroundColor=default;strokeColor=default;fontFamily=Helvetica;fontSize=11;fontColor=default;endArrow=none;" parent="1" source="phPr1kaGQBQbVtV2x5ig-17" edge="1">
          <mxGeometry relative="1" as="geometry">
            <mxPoint x="-80" y="610" as="targetPoint" />
          </mxGeometry>
        </mxCell>
        <mxCell id="phPr1kaGQBQbVtV2x5ig-17" value="Καθηγητής" style="rounded=0;whiteSpace=wrap;html=1;" parent="1" vertex="1">
          <mxGeometry x="40" y="481" width="100" height="30" as="geometry" />
        </mxCell>
        <mxCell id="phPr1kaGQBQbVtV2x5ig-18" style="edgeStyle=orthogonalEdgeStyle;rounded=0;orthogonalLoop=1;jettySize=auto;html=1;exitX=0.5;exitY=1;exitDx=0;exitDy=0;" parent="1" source="phPr1kaGQBQbVtV2x5ig-16" target="phPr1kaGQBQbVtV2x5ig-16" edge="1">
          <mxGeometry relative="1" as="geometry" />
        </mxCell>
        <mxCell id="phPr1kaGQBQbVtV2x5ig-156" style="edgeStyle=none;shape=connector;rounded=0;orthogonalLoop=1;jettySize=auto;html=1;exitX=0.5;exitY=1;exitDx=0;exitDy=0;labelBackgroundColor=default;strokeColor=default;fontFamily=Helvetica;fontSize=11;fontColor=default;endArrow=none;entryX=0.65;entryY=-0.133;entryDx=0;entryDy=0;entryPerimeter=0;" parent="1" source="phPr1kaGQBQbVtV2x5ig-19" target="phPr1kaGQBQbVtV2x5ig-53" edge="1">
          <mxGeometry relative="1" as="geometry">
            <mxPoint x="286" y="780" as="targetPoint" />
          </mxGeometry>
        </mxCell>
        <mxCell id="phPr1kaGQBQbVtV2x5ig-19" value="" style="rounded=0;whiteSpace=wrap;html=1;" parent="1" vertex="1">
          <mxGeometry x="236" y="510" width="100" height="40" as="geometry" />
        </mxCell>
        <mxCell id="phPr1kaGQBQbVtV2x5ig-20" value="Διευθυντής" style="rounded=0;whiteSpace=wrap;html=1;" parent="1" vertex="1">
          <mxGeometry x="236" y="480" width="100" height="31" as="geometry" />
        </mxCell>
        <mxCell id="phPr1kaGQBQbVtV2x5ig-21" style="edgeStyle=orthogonalEdgeStyle;rounded=0;orthogonalLoop=1;jettySize=auto;html=1;exitX=0.5;exitY=1;exitDx=0;exitDy=0;" parent="1" source="phPr1kaGQBQbVtV2x5ig-19" target="phPr1kaGQBQbVtV2x5ig-19" edge="1">
          <mxGeometry relative="1" as="geometry" />
        </mxCell>
        <mxCell id="phPr1kaGQBQbVtV2x5ig-22" value="" style="rounded=0;whiteSpace=wrap;html=1;" parent="1" vertex="1">
          <mxGeometry x="414" y="510" width="100" height="40" as="geometry" />
        </mxCell>
        <mxCell id="phPr1kaGQBQbVtV2x5ig-23" value="Ψυχολόγος" style="rounded=0;whiteSpace=wrap;html=1;" parent="1" vertex="1">
          <mxGeometry x="414" y="480" width="100" height="29" as="geometry" />
        </mxCell>
        <mxCell id="phPr1kaGQBQbVtV2x5ig-24" style="edgeStyle=orthogonalEdgeStyle;rounded=0;orthogonalLoop=1;jettySize=auto;html=1;exitX=0.5;exitY=1;exitDx=0;exitDy=0;" parent="1" source="phPr1kaGQBQbVtV2x5ig-22" target="phPr1kaGQBQbVtV2x5ig-22" edge="1">
          <mxGeometry relative="1" as="geometry" />
        </mxCell>
        <mxCell id="phPr1kaGQBQbVtV2x5ig-25" value="" style="rounded=0;whiteSpace=wrap;html=1;" parent="1" vertex="1">
          <mxGeometry x="890" y="790" width="100" height="40" as="geometry" />
        </mxCell>
        <mxCell id="phPr1kaGQBQbVtV2x5ig-152" style="edgeStyle=none;shape=connector;rounded=0;orthogonalLoop=1;jettySize=auto;html=1;exitX=0.5;exitY=0;exitDx=0;exitDy=0;entryX=1;entryY=1;entryDx=0;entryDy=0;labelBackgroundColor=default;strokeColor=default;fontFamily=Helvetica;fontSize=11;fontColor=default;endArrow=none;" parent="1" source="phPr1kaGQBQbVtV2x5ig-26" target="phPr1kaGQBQbVtV2x5ig-40" edge="1">
          <mxGeometry relative="1" as="geometry" />
        </mxCell>
        <mxCell id="phPr1kaGQBQbVtV2x5ig-26" value="Βαθμός" style="rounded=0;whiteSpace=wrap;html=1;" parent="1" vertex="1">
          <mxGeometry x="890" y="760" width="100" height="30" as="geometry" />
        </mxCell>
        <mxCell id="phPr1kaGQBQbVtV2x5ig-27" style="edgeStyle=orthogonalEdgeStyle;rounded=0;orthogonalLoop=1;jettySize=auto;html=1;exitX=0.5;exitY=1;exitDx=0;exitDy=0;" parent="1" source="phPr1kaGQBQbVtV2x5ig-25" target="phPr1kaGQBQbVtV2x5ig-25" edge="1">
          <mxGeometry relative="1" as="geometry" />
        </mxCell>
        <mxCell id="phPr1kaGQBQbVtV2x5ig-28" value="" style="rounded=0;whiteSpace=wrap;html=1;" parent="1" vertex="1">
          <mxGeometry x="690" y="780" width="100" height="40" as="geometry" />
        </mxCell>
        <mxCell id="phPr1kaGQBQbVtV2x5ig-29" value="Γραπτό" style="rounded=0;whiteSpace=wrap;html=1;" parent="1" vertex="1">
          <mxGeometry x="690" y="750" width="100" height="30" as="geometry" />
        </mxCell>
        <mxCell id="phPr1kaGQBQbVtV2x5ig-30" style="edgeStyle=orthogonalEdgeStyle;rounded=0;orthogonalLoop=1;jettySize=auto;html=1;exitX=0.5;exitY=1;exitDx=0;exitDy=0;" parent="1" source="phPr1kaGQBQbVtV2x5ig-28" target="phPr1kaGQBQbVtV2x5ig-28" edge="1">
          <mxGeometry relative="1" as="geometry" />
        </mxCell>
        <mxCell id="phPr1kaGQBQbVtV2x5ig-155" value="" style="edgeStyle=none;shape=connector;rounded=0;orthogonalLoop=1;jettySize=auto;html=1;labelBackgroundColor=default;strokeColor=default;fontFamily=Helvetica;fontSize=11;fontColor=default;endArrow=none;" parent="1" source="phPr1kaGQBQbVtV2x5ig-31" target="phPr1kaGQBQbVtV2x5ig-2" edge="1">
          <mxGeometry relative="1" as="geometry" />
        </mxCell>
        <mxCell id="phPr1kaGQBQbVtV2x5ig-31" value="" style="rounded=0;whiteSpace=wrap;html=1;" parent="1" vertex="1">
          <mxGeometry x="230" width="100" height="40" as="geometry" />
        </mxCell>
        <mxCell id="phPr1kaGQBQbVtV2x5ig-32" value="Σχολείο" style="rounded=0;whiteSpace=wrap;html=1;" parent="1" vertex="1">
          <mxGeometry x="230" y="-30" width="100" height="30" as="geometry" />
        </mxCell>
        <mxCell id="phPr1kaGQBQbVtV2x5ig-34" value="" style="rounded=0;whiteSpace=wrap;html=1;" parent="1" vertex="1">
          <mxGeometry x="870" y="319" width="100" height="40" as="geometry" />
        </mxCell>
        <mxCell id="phPr1kaGQBQbVtV2x5ig-35" value="Τάξη" style="rounded=0;whiteSpace=wrap;html=1;" parent="1" vertex="1">
          <mxGeometry x="870" y="289" width="100" height="30" as="geometry" />
        </mxCell>
        <mxCell id="phPr1kaGQBQbVtV2x5ig-36" style="edgeStyle=orthogonalEdgeStyle;rounded=0;orthogonalLoop=1;jettySize=auto;html=1;exitX=0.5;exitY=1;exitDx=0;exitDy=0;" parent="1" source="phPr1kaGQBQbVtV2x5ig-34" target="phPr1kaGQBQbVtV2x5ig-34" edge="1">
          <mxGeometry relative="1" as="geometry" />
        </mxCell>
        <mxCell id="phPr1kaGQBQbVtV2x5ig-150" style="edgeStyle=none;shape=connector;rounded=0;orthogonalLoop=1;jettySize=auto;html=1;exitX=0.5;exitY=1;exitDx=0;exitDy=0;labelBackgroundColor=default;strokeColor=default;fontFamily=Helvetica;fontSize=11;fontColor=default;endArrow=none;" parent="1" source="phPr1kaGQBQbVtV2x5ig-37" edge="1">
          <mxGeometry relative="1" as="geometry">
            <mxPoint x="840" y="620" as="targetPoint" />
          </mxGeometry>
        </mxCell>
        <mxCell id="phPr1kaGQBQbVtV2x5ig-37" value="" style="rounded=0;whiteSpace=wrap;html=1;" parent="1" vertex="1">
          <mxGeometry x="790" y="508" width="100" height="40" as="geometry" />
        </mxCell>
        <mxCell id="phPr1kaGQBQbVtV2x5ig-38" value="Πρόγραμμα μαθητή" style="rounded=0;whiteSpace=wrap;html=1;" parent="1" vertex="1">
          <mxGeometry x="790" y="478" width="100" height="30" as="geometry" />
        </mxCell>
        <mxCell id="phPr1kaGQBQbVtV2x5ig-39" style="edgeStyle=orthogonalEdgeStyle;rounded=0;orthogonalLoop=1;jettySize=auto;html=1;exitX=0.5;exitY=1;exitDx=0;exitDy=0;" parent="1" source="phPr1kaGQBQbVtV2x5ig-37" target="phPr1kaGQBQbVtV2x5ig-37" edge="1">
          <mxGeometry relative="1" as="geometry" />
        </mxCell>
        <mxCell id="phPr1kaGQBQbVtV2x5ig-151" style="edgeStyle=none;shape=connector;rounded=0;orthogonalLoop=1;jettySize=auto;html=1;exitX=0;exitY=1;exitDx=0;exitDy=0;entryX=0.5;entryY=0;entryDx=0;entryDy=0;labelBackgroundColor=default;strokeColor=default;fontFamily=Helvetica;fontSize=11;fontColor=default;endArrow=none;" parent="1" source="phPr1kaGQBQbVtV2x5ig-40" target="phPr1kaGQBQbVtV2x5ig-29" edge="1">
          <mxGeometry relative="1" as="geometry" />
        </mxCell>
        <mxCell id="phPr1kaGQBQbVtV2x5ig-40" value="" style="rounded=0;whiteSpace=wrap;html=1;" parent="1" vertex="1">
          <mxGeometry x="790" y="653.5" width="100" height="40" as="geometry" />
        </mxCell>
        <mxCell id="phPr1kaGQBQbVtV2x5ig-41" value="Μάθημα" style="rounded=0;whiteSpace=wrap;html=1;" parent="1" vertex="1">
          <mxGeometry x="790" y="623.5" width="100" height="30" as="geometry" />
        </mxCell>
        <mxCell id="phPr1kaGQBQbVtV2x5ig-42" style="edgeStyle=orthogonalEdgeStyle;rounded=0;orthogonalLoop=1;jettySize=auto;html=1;exitX=0.5;exitY=1;exitDx=0;exitDy=0;" parent="1" source="phPr1kaGQBQbVtV2x5ig-40" target="phPr1kaGQBQbVtV2x5ig-40" edge="1">
          <mxGeometry relative="1" as="geometry" />
        </mxCell>
        <mxCell id="phPr1kaGQBQbVtV2x5ig-43" value="" style="rounded=0;whiteSpace=wrap;html=1;" parent="1" vertex="1">
          <mxGeometry x="1080" y="794.5" width="100" height="40" as="geometry" />
        </mxCell>
        <mxCell id="phPr1kaGQBQbVtV2x5ig-44" value="Ύλη μαθήματος" style="rounded=0;whiteSpace=wrap;html=1;" parent="1" vertex="1">
          <mxGeometry x="1080" y="764.5" width="100" height="30" as="geometry" />
        </mxCell>
        <mxCell id="phPr1kaGQBQbVtV2x5ig-45" style="edgeStyle=orthogonalEdgeStyle;rounded=0;orthogonalLoop=1;jettySize=auto;html=1;exitX=0.5;exitY=1;exitDx=0;exitDy=0;" parent="1" source="phPr1kaGQBQbVtV2x5ig-43" target="phPr1kaGQBQbVtV2x5ig-43" edge="1">
          <mxGeometry relative="1" as="geometry" />
        </mxCell>
        <mxCell id="phPr1kaGQBQbVtV2x5ig-49" value="" style="rounded=0;whiteSpace=wrap;html=1;" parent="1" vertex="1">
          <mxGeometry x="600" y="509" width="100" height="40" as="geometry" />
        </mxCell>
        <mxCell id="phPr1kaGQBQbVtV2x5ig-50" value="Απουσία" style="rounded=0;whiteSpace=wrap;html=1;" parent="1" vertex="1">
          <mxGeometry x="600" y="479" width="100" height="30" as="geometry" />
        </mxCell>
        <mxCell id="phPr1kaGQBQbVtV2x5ig-51" style="edgeStyle=orthogonalEdgeStyle;rounded=0;orthogonalLoop=1;jettySize=auto;html=1;exitX=0.5;exitY=1;exitDx=0;exitDy=0;" parent="1" source="phPr1kaGQBQbVtV2x5ig-49" target="phPr1kaGQBQbVtV2x5ig-49" edge="1">
          <mxGeometry relative="1" as="geometry" />
        </mxCell>
        <mxCell id="phPr1kaGQBQbVtV2x5ig-76" style="edgeStyle=orthogonalEdgeStyle;rounded=0;orthogonalLoop=1;jettySize=auto;html=1;exitX=0.5;exitY=0;exitDx=0;exitDy=0;entryX=0;entryY=0.25;entryDx=0;entryDy=0;endArrow=block;endFill=0;" parent="1" source="phPr1kaGQBQbVtV2x5ig-56" target="phPr1kaGQBQbVtV2x5ig-52" edge="1">
          <mxGeometry relative="1" as="geometry" />
        </mxCell>
        <mxCell id="phPr1kaGQBQbVtV2x5ig-77" style="edgeStyle=orthogonalEdgeStyle;rounded=0;orthogonalLoop=1;jettySize=auto;html=1;exitX=0.5;exitY=0;exitDx=0;exitDy=0;entryX=1;entryY=0.25;entryDx=0;entryDy=0;endArrow=block;endFill=0;" parent="1" source="phPr1kaGQBQbVtV2x5ig-59" target="phPr1kaGQBQbVtV2x5ig-52" edge="1">
          <mxGeometry relative="1" as="geometry">
            <Array as="points">
              <mxPoint x="420" y="830" />
            </Array>
          </mxGeometry>
        </mxCell>
        <mxCell id="phPr1kaGQBQbVtV2x5ig-52" value="" style="rounded=0;whiteSpace=wrap;html=1;" parent="1" vertex="1">
          <mxGeometry x="220" y="820" width="100" height="40" as="geometry" />
        </mxCell>
        <mxCell id="phPr1kaGQBQbVtV2x5ig-53" value="Ανακοίνωση" style="rounded=0;whiteSpace=wrap;html=1;" parent="1" vertex="1">
          <mxGeometry x="220" y="790" width="100" height="30" as="geometry" />
        </mxCell>
        <mxCell id="phPr1kaGQBQbVtV2x5ig-54" style="edgeStyle=orthogonalEdgeStyle;rounded=0;orthogonalLoop=1;jettySize=auto;html=1;exitX=0.5;exitY=1;exitDx=0;exitDy=0;" parent="1" source="phPr1kaGQBQbVtV2x5ig-52" target="phPr1kaGQBQbVtV2x5ig-52" edge="1">
          <mxGeometry relative="1" as="geometry" />
        </mxCell>
        <mxCell id="phPr1kaGQBQbVtV2x5ig-55" value="" style="rounded=0;whiteSpace=wrap;html=1;" parent="1" vertex="1">
          <mxGeometry x="80" y="970" width="100" height="40" as="geometry" />
        </mxCell>
        <mxCell id="phPr1kaGQBQbVtV2x5ig-56" value="Σχολική Εκδήλωση" style="rounded=0;whiteSpace=wrap;html=1;" parent="1" vertex="1">
          <mxGeometry x="80" y="940" width="100" height="30" as="geometry" />
        </mxCell>
        <mxCell id="phPr1kaGQBQbVtV2x5ig-57" style="edgeStyle=orthogonalEdgeStyle;rounded=0;orthogonalLoop=1;jettySize=auto;html=1;exitX=0.5;exitY=1;exitDx=0;exitDy=0;" parent="1" source="phPr1kaGQBQbVtV2x5ig-55" target="phPr1kaGQBQbVtV2x5ig-55" edge="1">
          <mxGeometry relative="1" as="geometry" />
        </mxCell>
        <mxCell id="phPr1kaGQBQbVtV2x5ig-58" value="" style="rounded=0;whiteSpace=wrap;html=1;" parent="1" vertex="1">
          <mxGeometry x="370" y="969" width="100" height="40" as="geometry" />
        </mxCell>
        <mxCell id="phPr1kaGQBQbVtV2x5ig-59" value="Εκδρομή" style="rounded=0;whiteSpace=wrap;html=1;" parent="1" vertex="1">
          <mxGeometry x="370" y="939" width="100" height="30" as="geometry" />
        </mxCell>
        <mxCell id="phPr1kaGQBQbVtV2x5ig-60" style="edgeStyle=orthogonalEdgeStyle;rounded=0;orthogonalLoop=1;jettySize=auto;html=1;exitX=0.5;exitY=1;exitDx=0;exitDy=0;" parent="1" source="phPr1kaGQBQbVtV2x5ig-58" target="phPr1kaGQBQbVtV2x5ig-58" edge="1">
          <mxGeometry relative="1" as="geometry" />
        </mxCell>
        <mxCell id="phPr1kaGQBQbVtV2x5ig-138" value="" style="rounded=0;whiteSpace=wrap;html=1;" parent="1" vertex="1">
          <mxGeometry x="410" y="694.5" width="100" height="40" as="geometry" />
        </mxCell>
        <mxCell id="phPr1kaGQBQbVtV2x5ig-139" value="Ραντεβού Ψυχολόγου" style="rounded=0;whiteSpace=wrap;html=1;" parent="1" vertex="1">
          <mxGeometry x="410" y="664.5" width="100" height="30" as="geometry" />
        </mxCell>
        <mxCell id="phPr1kaGQBQbVtV2x5ig-140" style="edgeStyle=orthogonalEdgeStyle;rounded=0;orthogonalLoop=1;jettySize=auto;html=1;exitX=0.5;exitY=1;exitDx=0;exitDy=0;" parent="1" source="phPr1kaGQBQbVtV2x5ig-138" target="phPr1kaGQBQbVtV2x5ig-138" edge="1">
          <mxGeometry relative="1" as="geometry" />
        </mxCell>
        <mxCell id="phPr1kaGQBQbVtV2x5ig-153" value="" style="endArrow=diamondThin;endFill=0;endSize=24;html=1;rounded=0;labelBackgroundColor=default;strokeColor=default;fontFamily=Helvetica;fontSize=11;fontColor=default;shape=connector;entryX=1;entryY=0.75;entryDx=0;entryDy=0;" parent="1" target="phPr1kaGQBQbVtV2x5ig-41" edge="1">
          <mxGeometry width="160" relative="1" as="geometry">
            <mxPoint x="1120" y="760" as="sourcePoint" />
            <mxPoint x="750" y="960" as="targetPoint" />
          </mxGeometry>
        </mxCell>
        <mxCell id="phPr1kaGQBQbVtV2x5ig-159" value="" style="endArrow=diamondThin;endFill=1;endSize=24;html=1;rounded=0;labelBackgroundColor=default;strokeColor=default;fontFamily=Helvetica;fontSize=11;fontColor=default;shape=connector;entryX=1;entryY=1;entryDx=0;entryDy=0;exitX=0.5;exitY=0;exitDx=0;exitDy=0;" parent="1" source="phPr1kaGQBQbVtV2x5ig-35" target="phPr1kaGQBQbVtV2x5ig-32" edge="1">
          <mxGeometry width="160" relative="1" as="geometry">
            <mxPoint x="920" y="280" as="sourcePoint" />
            <mxPoint x="770" y="-20" as="targetPoint" />
            <Array as="points">
              <mxPoint x="920" />
              <mxPoint x="350" />
            </Array>
          </mxGeometry>
        </mxCell>
        <mxCell id="phPr1kaGQBQbVtV2x5ig-160" value="" style="endArrow=diamondThin;endFill=1;endSize=24;html=1;rounded=0;labelBackgroundColor=default;strokeColor=default;fontFamily=Helvetica;fontSize=11;fontColor=default;shape=connector;exitX=0.5;exitY=0;exitDx=0;exitDy=0;entryX=1;entryY=1;entryDx=0;entryDy=0;" parent="1" source="phPr1kaGQBQbVtV2x5ig-38" target="phPr1kaGQBQbVtV2x5ig-7" edge="1">
          <mxGeometry width="160" relative="1" as="geometry">
            <mxPoint x="370" y="480" as="sourcePoint" />
            <mxPoint x="530" y="480" as="targetPoint" />
          </mxGeometry>
        </mxCell>
        <mxCell id="phPr1kaGQBQbVtV2x5ig-161" value="" style="endArrow=diamondThin;endFill=1;endSize=24;html=1;rounded=0;labelBackgroundColor=default;strokeColor=default;fontFamily=Helvetica;fontSize=11;fontColor=default;shape=connector;entryX=0.25;entryY=1;entryDx=0;entryDy=0;exitX=0.5;exitY=0;exitDx=0;exitDy=0;" parent="1" source="phPr1kaGQBQbVtV2x5ig-50" target="phPr1kaGQBQbVtV2x5ig-7" edge="1">
          <mxGeometry width="160" relative="1" as="geometry">
            <mxPoint x="650" y="470" as="sourcePoint" />
            <mxPoint x="530" y="480" as="targetPoint" />
          </mxGeometry>
        </mxCell>
        <mxCell id="phPr1kaGQBQbVtV2x5ig-162" value="" style="endArrow=diamondThin;endFill=1;endSize=24;html=1;rounded=0;labelBackgroundColor=default;strokeColor=default;fontFamily=Helvetica;fontSize=11;fontColor=default;shape=connector;entryX=0.5;entryY=1;entryDx=0;entryDy=0;" parent="1" target="phPr1kaGQBQbVtV2x5ig-22" edge="1">
          <mxGeometry width="160" relative="1" as="geometry">
            <mxPoint x="460" y="660" as="sourcePoint" />
            <mxPoint x="450" y="590" as="targetPoint" />
          </mxGeometry>
        </mxCell>
        <mxCell id="cfDdfRaYYQq03VDsBxe2-6" value="" style="rounded=0;whiteSpace=wrap;html=1;" vertex="1" parent="1">
          <mxGeometry x="-130" y="640" width="100" height="40" as="geometry" />
        </mxCell>
        <mxCell id="cfDdfRaYYQq03VDsBxe2-7" value="Αίτημα επικοινωνίας" style="rounded=0;whiteSpace=wrap;html=1;" vertex="1" parent="1">
          <mxGeometry x="-130" y="610" width="100" height="30" as="geometry" />
        </mxCell>
        <mxCell id="cfDdfRaYYQq03VDsBxe2-8" style="edgeStyle=orthogonalEdgeStyle;rounded=0;orthogonalLoop=1;jettySize=auto;html=1;exitX=0.5;exitY=1;exitDx=0;exitDy=0;" edge="1" parent="1" source="cfDdfRaYYQq03VDsBxe2-6" target="cfDdfRaYYQq03VDsBxe2-6">
          <mxGeometry relative="1" as="geometry" />
        </mxCell>
        <mxCell id="cfDdfRaYYQq03VDsBxe2-12" value="" style="rounded=0;whiteSpace=wrap;html=1;" vertex="1" parent="1">
          <mxGeometry x="140" y="663.5" width="100" height="40" as="geometry" />
        </mxCell>
        <mxCell id="cfDdfRaYYQq03VDsBxe2-13" value="Πορεία-Κατάσταση Μαθητή" style="rounded=0;whiteSpace=wrap;html=1;" vertex="1" parent="1">
          <mxGeometry x="140" y="623.5" width="100" height="40" as="geometry" />
        </mxCell>
        <mxCell id="cfDdfRaYYQq03VDsBxe2-14" style="edgeStyle=orthogonalEdgeStyle;rounded=0;orthogonalLoop=1;jettySize=auto;html=1;exitX=0.5;exitY=1;exitDx=0;exitDy=0;" edge="1" parent="1" source="cfDdfRaYYQq03VDsBxe2-12" target="cfDdfRaYYQq03VDsBxe2-12">
          <mxGeometry relative="1" as="geometry" />
        </mxCell>
        <mxCell id="cfDdfRaYYQq03VDsBxe2-16" value="" style="endArrow=none;html=1;rounded=0;exitX=1;exitY=1;exitDx=0;exitDy=0;" edge="1" parent="1" source="cfDdfRaYYQq03VDsBxe2-13">
          <mxGeometry width="50" height="50" relative="1" as="geometry">
            <mxPoint x="364" y="580" as="sourcePoint" />
            <mxPoint x="414" y="530" as="targetPoint" />
          </mxGeometry>
        </mxCell>
      </root>
    </mxGraphModel>
  </diagram>
</mxfile>
